<?xml version="1.0" encoding="iso-8859-1"?>
<!-- Generator: Adobe Illustrator 17.1.0, SVG Export Plug-In . SVG Version: 6.00 Build 0)  -->
<!DOCTYPE svg PUBLIC "-//W3C//DTD SVG 1.1//EN" "http://www.w3.org/Graphics/SVG/1.1/DTD/svg11.dtd">
<svg version="1.1" id="Capa_1" xmlns="http://www.w3.org/2000/svg" xmlns:xlink="http://www.w3.org/1999/xlink" x="0px" y="0px"
	 viewBox="0 0 412.6 412.6" style="enable-background:new 0 0 412.6 412.6;" xml:space="preserve">
<path d="M370.859,111.83c-2.15-28.823-14.604-55.965-35.065-76.427C312.964,12.573,282.61,0,250.324,0
	c-23.992,0-46.96,6.928-66.749,20.077c-1.842-0.363-3.733-0.549-5.652-0.549c-7.734,0-15.006,3.012-20.476,8.481
	c-5.47,5.47-8.481,12.741-8.481,20.476c0,1.92,0.187,3.812,0.549,5.654c-14.749,22.246-21.742,48.961-19.74,75.79
	c0.526,7.057,1.674,14.011,3.402,20.793l-85.924,106.14c-8.468,10.461-7.647,26.111,1.87,35.628l29.583,29.583
	c5.115,5.115,11.999,7.717,18.898,7.717c5.939,0,11.891-1.93,16.73-5.848l50.488-40.872V392.6h-63.416c-5.523,0-10,4.477-10,10
	s4.477,10,10,10h146.832c5.522,0,10-4.477,10-10s-4.478-10-10-10h-63.416V266.881l35.61-28.828
	c9.648,2.442,19.665,3.704,29.877,3.704c0.003,0,0.002,0,0.006,0c23.987,0,46.956-6.929,66.744-20.076
	c1.842,0.363,3.733,0.549,5.653,0.549c7.734,0,15.006-3.012,20.476-8.481c7.082-7.082,9.719-16.95,7.917-26.109
	C365.863,165.39,372.861,138.667,370.859,111.83z M329.632,187.589c0.134,0.164,0.257,0.337,0.38,0.51
	c0.041,0.058,0.087,0.114,0.127,0.173c0.315,0.471,0.587,0.974,0.811,1.505l0.092,0.217c1.26,3.216,0.597,7.018-1.996,9.612
	c-1.692,1.692-3.941,2.624-6.334,2.624c-1.124,0-2.212-0.213-3.229-0.605l-0.267-0.113c-1.073-0.454-2.027-1.095-2.838-1.905
	L171.589,54.818c-0.204-0.204-0.396-0.417-0.578-0.637c-0.543-0.66-0.988-1.398-1.329-2.203l-0.106-0.25
	c-0.397-1.021-0.611-2.115-0.611-3.244c0-2.393,0.932-4.642,2.623-6.333c1.692-1.692,3.941-2.624,6.334-2.624
	c1.129,0,2.223,0.214,3.244,0.611l0.25,0.106c0.805,0.34,1.543,0.786,2.204,1.33c0.219,0.181,0.432,0.373,0.636,0.577
	l144.788,144.787c0.007,0.007,0.014,0.016,0.021,0.023C329.266,187.164,329.454,187.373,329.632,187.589z M321.651,49.545
	c32.097,32.096,38.616,80.409,17.509,119.225L202.435,32.046C217.054,24.133,233.382,20,250.324,20
	C277.268,20,302.599,30.493,321.651,49.545z M101.749,308.398c-2.439,1.976-6.682,1.753-8.902-0.467l-29.583-29.583
	c-2.22-2.219-2.442-6.462-0.467-8.902l78.316-96.743c5.883,12.393,13.873,23.799,23.726,33.652
	c9.928,9.928,21.281,17.914,33.596,23.772L101.749,308.398z M250.313,221.758c-0.001,0-0.003,0-0.004,0
	c-26.945-0.001-52.276-10.494-71.327-29.544c-32.097-32.096-38.616-80.409-17.509-119.226l136.724,136.725
	C283.579,217.625,267.253,221.758,250.313,221.758z"/>
<g>
</g>
<g>
</g>
<g>
</g>
<g>
</g>
<g>
</g>
<g>
</g>
<g>
</g>
<g>
</g>
<g>
</g>
<g>
</g>
<g>
</g>
<g>
</g>
<g>
</g>
<g>
</g>
<g>
</g>
</svg>
